<?xml version="1.0" encoding="UTF-8"?>
<svg xmlns="http://www.w3.org/2000/svg" version="1.1" width="1646px" height="1646px" style="shape-rendering:geometricPrecision; text-rendering:geometricPrecision; image-rendering:optimizeQuality; fill-rule:evenodd; clip-rule:evenodd" xmlns:xlink="http://www.w3.org/1999/xlink">
<g><path style="opacity:1" fill="#bb618d" d="M 1241.5,167.5 C 962.167,166.167 682.833,166.167 403.5,167.5C 542.832,166.167 682.498,165.5 822.5,165.5C 962.502,165.5 1102.17,166.167 1241.5,167.5 Z"/></g>
<g><path style="opacity:1" fill="#a42d67" d="M 1241.5,167.5 C 1245.93,174.019 1249.59,181.019 1252.5,188.5C 1252.43,190.027 1253.09,191.027 1254.5,191.5C 1257.67,196.516 1260.34,201.849 1262.5,207.5C 1262.43,209.027 1263.09,210.027 1264.5,210.5C 1276.67,232.846 1288.34,255.512 1299.5,278.5C 1299.43,280.027 1300.09,281.027 1301.5,281.5C 1309.82,297.465 1318.15,313.465 1326.5,329.5C 1326.74,335.313 1329.07,339.98 1333.5,343.5C 1350.93,374.685 1367.59,406.352 1383.5,438.5C 1383.43,440.027 1384.09,441.027 1385.5,441.5C 1452.08,568.318 1518.41,695.318 1584.5,822.5C 1548.19,893.146 1511.53,963.479 1474.5,1033.5C 1473.09,1033.97 1472.43,1034.97 1472.5,1036.5C 1466.87,1048.39 1460.87,1060.05 1454.5,1071.5C 1453.09,1071.97 1452.43,1072.97 1452.5,1074.5C 1432.36,1113.79 1412.02,1152.79 1391.5,1191.5C 1389.24,1192.34 1388.24,1194.01 1388.5,1196.5C 1387.33,1197.51 1386.66,1198.85 1386.5,1200.5C 1371.32,1230.85 1355.66,1260.85 1339.5,1290.5C 1337.24,1291.34 1336.24,1293.01 1336.5,1295.5C 1333.67,1302.48 1330.34,1309.15 1326.5,1315.5C 1324.24,1316.34 1323.24,1318.01 1323.5,1320.5C 1322.67,1323.48 1321.34,1326.15 1319.5,1328.5C 1317.09,1329.68 1316.09,1331.68 1316.5,1334.5C 1313.42,1341 1310.08,1347.33 1306.5,1353.5C 1303.91,1355.01 1302.57,1357.34 1302.5,1360.5C 1298.02,1370.78 1293.02,1380.78 1287.5,1390.5C 1286.5,1390.5 1285.5,1390.5 1284.5,1390.5C 1284.5,1392.5 1284.5,1394.5 1284.5,1396.5C 1275.83,1413.17 1267.17,1429.83 1258.5,1446.5C 1256.55,1447.03 1255.55,1448.37 1255.5,1450.5C 1251.36,1460.12 1246.69,1469.45 1241.5,1478.5C 961.693,1479.16 682.027,1478.5 402.5,1476.5C 397.899,1468.3 393.565,1459.96 389.5,1451.5C 389.5,1449.5 389.5,1447.5 389.5,1445.5C 388.5,1445.5 387.5,1445.5 386.5,1445.5C 370.66,1416.49 355.327,1387.16 340.5,1357.5C 340.913,1354.68 339.913,1352.68 337.5,1351.5C 324.439,1327.75 311.772,1303.75 299.5,1279.5C 299.715,1277.82 299.048,1276.82 297.5,1276.5C 271.629,1228.09 246.295,1179.42 221.5,1130.5C 221.162,1128.15 220.662,1125.81 220,1123.5C 219.617,1124.06 219.117,1124.39 218.5,1124.5C 189.661,1070.82 161.327,1016.82 133.5,962.5C 133.715,960.821 133.048,959.821 131.5,959.5C 107.589,914.012 83.9219,868.345 60.5,822.5C 78.3334,786.831 96.6668,751.498 115.5,716.5C 117.408,715.514 118.408,713.848 118.5,711.5C 142.054,665.052 166.054,619.052 190.5,573.5C 191.906,573.027 192.573,572.027 192.5,570.5C 212.309,531.876 232.309,493.543 252.5,455.5C 255.057,453.068 256.89,450.068 258,446.5C 261.653,443.392 263.486,439.392 263.5,434.5C 263.66,432.847 264.326,431.514 265.5,430.5C 267.408,429.514 268.408,427.848 268.5,425.5C 274.898,412.37 281.565,399.37 288.5,386.5C 289.906,386.027 290.573,385.027 290.5,383.5C 294.738,373.355 299.738,363.688 305.5,354.5C 307.408,353.514 308.408,351.848 308.5,349.5C 310.992,343.182 313.992,337.182 317.5,331.5C 319.913,330.32 320.913,328.32 320.5,325.5C 323.595,318.974 326.928,312.641 330.5,306.5C 332.408,305.514 333.408,303.848 333.5,301.5C 333.992,299.181 334.992,297.181 336.5,295.5C 337.643,295.092 338.643,294.425 339.5,293.5C 340.35,290.427 341.35,287.427 342.5,284.5C 344.992,278.182 347.992,272.182 351.5,266.5C 352.906,266.027 353.573,265.027 353.5,263.5C 355.229,259.042 357.229,254.709 359.5,250.5C 360.906,250.027 361.573,249.027 361.5,247.5C 365.915,238.335 370.582,229.335 375.5,220.5C 376.397,219.402 377.23,219.402 378,220.5C 378.739,217.454 379.572,214.454 380.5,211.5C 381.992,207.182 383.992,203.182 386.5,199.5C 388.25,198.341 389.25,196.674 389.5,194.5C 391.326,189.516 393.659,184.849 396.5,180.5C 398.408,179.514 399.408,177.848 399.5,175.5C 400.326,172.515 401.659,169.849 403.5,167.5C 682.833,166.167 962.167,166.167 1241.5,167.5 Z"/></g>
<g><path style="opacity:1" fill="#c67a9d" d="M 399.5,175.5 C 399.408,177.848 398.408,179.514 396.5,180.5C 396.75,178.326 397.75,176.659 399.5,175.5 Z"/></g>
<g><path style="opacity:1" fill="#d8a3bb" d="M 1252.5,188.5 C 1253.91,188.973 1254.57,189.973 1254.5,191.5C 1253.09,191.027 1252.43,190.027 1252.5,188.5 Z"/></g>
<g><path style="opacity:1" fill="#d398b4" d="M 389.5,194.5 C 389.25,196.674 388.25,198.341 386.5,199.5C 386.75,197.326 387.75,195.659 389.5,194.5 Z"/></g>
<g><path style="opacity:1" fill="#daa7bf" d="M 1262.5,207.5 C 1263.91,207.973 1264.57,208.973 1264.5,210.5C 1263.09,210.027 1262.43,209.027 1262.5,207.5 Z"/></g>
<g><path style="opacity:1" fill="#c06d92" d="M 380.5,211.5 C 379.572,214.454 378.739,217.454 378,220.5C 377.23,219.402 376.397,219.402 375.5,220.5C 376.41,217.008 378.076,214.008 380.5,211.5 Z"/></g>
<g><path style="opacity:1" fill="#e2b9cc" d="M 361.5,247.5 C 361.573,249.027 360.906,250.027 359.5,250.5C 359.427,248.973 360.094,247.973 361.5,247.5 Z"/></g>
<g><path style="opacity:1" fill="#dcacc2" d="M 353.5,263.5 C 353.573,265.027 352.906,266.027 351.5,266.5C 351.427,264.973 352.094,263.973 353.5,263.5 Z"/></g>
<g><path style="opacity:1" fill="#daa8bf" d="M 1299.5,278.5 C 1300.91,278.973 1301.57,279.973 1301.5,281.5C 1300.09,281.027 1299.43,280.027 1299.5,278.5 Z"/></g>
<g><path style="opacity:1" fill="#bc648b" d="M 342.5,284.5 C 341.35,287.427 340.35,290.427 339.5,293.5C 338.643,294.425 337.643,295.092 336.5,295.5C 337.742,291.345 339.742,287.678 342.5,284.5 Z"/></g>
<g><path style="opacity:1" fill="#cd89a7" d="M 333.5,301.5 C 333.408,303.848 332.408,305.514 330.5,306.5C 330.75,304.326 331.75,302.659 333.5,301.5 Z"/></g>
<g><path style="opacity:1" fill="#c6799a" d="M 320.5,325.5 C 320.913,328.32 319.913,330.32 317.5,331.5C 317.992,329.181 318.992,327.181 320.5,325.5 Z"/></g>
<g><path style="opacity:1" fill="#b85c85" d="M 1326.5,329.5 C 1329.34,333.849 1331.67,338.516 1333.5,343.5C 1329.07,339.98 1326.74,335.313 1326.5,329.5 Z"/></g>
<g><path style="opacity:1" fill="#c87e9e" d="M 308.5,349.5 C 308.408,351.848 307.408,353.514 305.5,354.5C 305.75,352.326 306.75,350.659 308.5,349.5 Z"/></g>
<g><path style="opacity:1" fill="#dba9bf" d="M 290.5,383.5 C 290.573,385.027 289.906,386.027 288.5,386.5C 288.427,384.973 289.094,383.973 290.5,383.5 Z"/></g>
<g><path style="opacity:1" fill="#fefefe" d="M 729.5,389.5 C 755.833,389.5 782.167,389.5 808.5,389.5C 900.594,623.492 992.927,856.826 1085.5,1089.5C 1120.56,1077.76 1155.56,1065.92 1190.5,1054C 1195.22,1052.92 1199.89,1051.76 1204.5,1050.5C 1205.76,1055.13 1206.93,1059.79 1208,1064.5C 1220.68,1100.38 1232.85,1136.38 1244.5,1172.5C 1158.17,1199.44 1072,1227.11 986,1255.5C 931.062,1119.5 876.562,983.162 822.5,846.5C 739.674,968.146 657.341,1090.15 575.5,1212.5C 517.331,1212.83 459.331,1212.5 401.5,1211.5C 517.491,1030.85 633.991,850.521 751,670.5C 751.667,668.833 751.667,667.167 751,665.5C 735.623,617.924 720.123,570.424 704.5,523C 666.501,522.5 628.501,522.333 590.5,522.5C 590.5,478.833 590.5,435.167 590.5,391.5C 636.994,390.896 683.327,390.229 729.5,389.5 Z"/></g>
<g><path style="opacity:1" fill="#d8a6be" d="M 729.5,389.5 C 683.327,390.229 636.994,390.896 590.5,391.5C 590.5,435.167 590.5,478.833 590.5,522.5C 589.501,478.336 589.168,434.003 589.5,389.5C 636.167,389.5 682.833,389.5 729.5,389.5 Z"/></g>
<g><path style="opacity:1" fill="#c87fa0" d="M 268.5,425.5 C 268.408,427.848 267.408,429.514 265.5,430.5C 265.75,428.326 266.75,426.659 268.5,425.5 Z"/></g>
<g><path style="opacity:1" fill="#dcacc2" d="M 1383.5,438.5 C 1384.91,438.973 1385.57,439.973 1385.5,441.5C 1384.09,441.027 1383.43,440.027 1383.5,438.5 Z"/></g>
<g><path style="opacity:1" fill="#bd668d" d="M 263.5,434.5 C 263.486,439.392 261.653,443.392 258,446.5C 256.89,450.068 255.057,453.068 252.5,455.5C 255.738,448.266 259.405,441.266 263.5,434.5 Z"/></g>
<g><path style="opacity:1" fill="#d69fb9" d="M 192.5,570.5 C 192.573,572.027 191.906,573.027 190.5,573.5C 190.427,571.973 191.094,570.973 192.5,570.5 Z"/></g>
<g><path style="opacity:1" fill="#cd89a8" d="M 118.5,711.5 C 118.408,713.848 117.408,715.514 115.5,716.5C 115.75,714.326 116.75,712.659 118.5,711.5 Z"/></g>
<g><path style="opacity:1" fill="#d498b2" d="M 131.5,959.5 C 133.048,959.821 133.715,960.821 133.5,962.5C 132.599,961.71 131.932,960.71 131.5,959.5 Z"/></g>
<g><path style="opacity:1" fill="#dcadc3" d="M 1474.5,1033.5 C 1474.57,1035.03 1473.91,1036.03 1472.5,1036.5C 1472.43,1034.97 1473.09,1033.97 1474.5,1033.5 Z"/></g>
<g><path style="opacity:1" fill="#d49bb6" d="M 1454.5,1071.5 C 1454.57,1073.03 1453.91,1074.03 1452.5,1074.5C 1452.43,1072.97 1453.09,1071.97 1454.5,1071.5 Z"/></g>
<g><path style="opacity:1" fill="#c87d9e" d="M 221.5,1130.5 C 219.992,1128.82 218.992,1126.82 218.5,1124.5C 219.117,1124.39 219.617,1124.06 220,1123.5C 220.662,1125.81 221.162,1128.15 221.5,1130.5 Z"/></g>
<g><path style="opacity:1" fill="#c67a9b" d="M 1391.5,1191.5 C 1391.25,1193.67 1390.25,1195.34 1388.5,1196.5C 1388.24,1194.01 1389.24,1192.34 1391.5,1191.5 Z"/></g>
<g><path style="opacity:1" fill="#d399b5" d="M 1388.5,1196.5 C 1388.77,1198.38 1388.1,1199.71 1386.5,1200.5C 1386.66,1198.85 1387.33,1197.51 1388.5,1196.5 Z"/></g>
<g><path style="opacity:1" fill="#dcafc4" d="M 401.5,1211.5 C 459.331,1212.5 517.331,1212.83 575.5,1212.5C 517.332,1213.83 458.999,1213.83 400.5,1212.5C 400.624,1211.89 400.957,1211.56 401.5,1211.5 Z"/></g>
<g><path style="opacity:1" fill="#d69cb6" d="M 297.5,1276.5 C 299.048,1276.82 299.715,1277.82 299.5,1279.5C 298.599,1278.71 297.932,1277.71 297.5,1276.5 Z"/></g>
<g><path style="opacity:1" fill="#ca81a0" d="M 1339.5,1290.5 C 1339.25,1292.67 1338.25,1294.34 1336.5,1295.5C 1336.24,1293.01 1337.24,1291.34 1339.5,1290.5 Z"/></g>
<g><path style="opacity:1" fill="#c77b9b" d="M 1326.5,1315.5 C 1326.25,1317.67 1325.25,1319.34 1323.5,1320.5C 1323.24,1318.01 1324.24,1316.34 1326.5,1315.5 Z"/></g>
<g><path style="opacity:1" fill="#c97e9e" d="M 1319.5,1328.5 C 1319.01,1330.82 1318.01,1332.82 1316.5,1334.5C 1316.09,1331.68 1317.09,1329.68 1319.5,1328.5 Z"/></g>
<g><path style="opacity:1" fill="#cd87a5" d="M 337.5,1351.5 C 339.913,1352.68 340.913,1354.68 340.5,1357.5C 338.992,1355.82 337.992,1353.82 337.5,1351.5 Z"/></g>
<g><path style="opacity:1" fill="#c97f9f" d="M 1306.5,1353.5 C 1305.92,1356.33 1304.59,1358.66 1302.5,1360.5C 1302.57,1357.34 1303.91,1355.01 1306.5,1353.5 Z"/></g>
<g><path style="opacity:1" fill="#c77b9c" d="M 1287.5,1390.5 C 1286.49,1392.57 1285.49,1394.57 1284.5,1396.5C 1284.5,1394.5 1284.5,1392.5 1284.5,1390.5C 1285.5,1390.5 1286.5,1390.5 1287.5,1390.5 Z"/></g>
<g><path style="opacity:1" fill="#c77a9b" d="M 386.5,1445.5 C 387.5,1445.5 388.5,1445.5 389.5,1445.5C 389.5,1447.5 389.5,1449.5 389.5,1451.5C 387.992,1449.82 386.992,1447.82 386.5,1445.5 Z"/></g>
<g><path style="opacity:1" fill="#d7a1ba" d="M 1258.5,1446.5 C 1257.97,1448.23 1256.97,1449.56 1255.5,1450.5C 1255.55,1448.37 1256.55,1447.03 1258.5,1446.5 Z"/></g>
<g><path style="opacity:1" fill="#bb618d" d="M 402.5,1476.5 C 682.027,1478.5 961.693,1479.16 1241.5,1478.5C 1102,1479.17 962.334,1479.5 822.5,1479.5C 682.833,1479.17 543.167,1478.83 403.5,1478.5C 403.137,1477.82 402.804,1477.15 402.5,1476.5 Z"/></g>
</svg>
